<?xml version="1.0" encoding="iso-8859-1"?>
<!-- Generator: Adobe Illustrator 19.0.0, SVG Export Plug-In . SVG Version: 6.00 Build 0)  -->
<svg version="1.1" id="Capa_1" xmlns="http://www.w3.org/2000/svg" xmlns:xlink="http://www.w3.org/1999/xlink" x="0px" y="0px"
	 viewBox="0 0 512 512" style="enable-background:new 0 0 512 512;" xml:space="preserve">
<rect x="153.6" style="fill:#E7ECED;" width="335.127" height="139.636"/>
<rect x="23.273" style="fill:#25AE88;" width="167.564" height="139.636"/>
<g>
	<path style="fill:#FFFFFF;" d="M88.436,111.709c-2.383,0-4.766-0.912-6.582-2.728L53.928,81.054c-3.64-3.64-3.64-9.523,0-13.163
		c3.631-3.64,9.533-3.64,13.163,0l27.927,27.927c3.64,3.64,3.64,9.523,0,13.163C93.203,110.797,90.819,111.709,88.436,111.709z"/>
	<path style="fill:#FFFFFF;" d="M88.436,111.709c-2.383,0-4.766-0.912-6.582-2.728c-3.64-3.64-3.64-9.523,0-13.163l65.164-65.164
		c3.631-3.64,9.533-3.64,13.163,0c3.64,3.64,3.64,9.523,0,13.163l-65.164,65.164C93.203,110.797,90.819,111.709,88.436,111.709z"/>
</g>
<path style="fill:#DD352E;" d="M386.327,55.855H228.073c-5.139,0-9.309-4.17-9.309-9.309s4.17-9.309,9.309-9.309h158.255
	c5.139,0,9.309,4.17,9.309,9.309S391.466,55.855,386.327,55.855z"/>
<path style="fill:#EBBA16;" d="M451.491,55.855h-27.927c-5.139,0-9.309-4.17-9.309-9.309s4.17-9.309,9.309-9.309h27.927
	c5.139,0,9.309,4.17,9.309,9.309S456.629,55.855,451.491,55.855z"/>
<path style="fill:#75348B;" d="M451.491,102.4H293.236c-5.139,0-9.309-4.17-9.309-9.309s4.17-9.309,9.309-9.309h158.255
	c5.139,0,9.309,4.17,9.309,9.309S456.629,102.4,451.491,102.4z"/>
<path style="fill:#366DB6;" d="M256,102.4h-27.927c-5.139,0-9.309-4.17-9.309-9.309s4.17-9.309,9.309-9.309H256
	c5.139,0,9.309,4.17,9.309,9.309S261.139,102.4,256,102.4z"/>
<rect x="162.909" y="186.182" style="fill:#E7ECED;" width="325.818" height="139.636"/>
<rect x="23.273" y="186.182" style="fill:#25AE88;" width="167.564" height="139.636"/>
<g>
	<path style="fill:#FFFFFF;" d="M88.436,297.891c-2.383,0-4.766-0.912-6.582-2.728l-27.927-27.927c-3.64-3.64-3.64-9.523,0-13.163
		c3.631-3.64,9.533-3.64,13.163,0L95.018,282c3.64,3.64,3.64,9.523,0,13.163C93.203,296.979,90.819,297.891,88.436,297.891z"/>
	<path style="fill:#FFFFFF;" d="M88.436,297.891c-2.383,0-4.766-0.912-6.582-2.728c-3.64-3.64-3.64-9.523,0-13.163l65.164-65.164
		c3.631-3.64,9.533-3.64,13.163,0c3.64,3.64,3.64,9.523,0,13.163l-65.164,65.164C93.203,296.979,90.819,297.891,88.436,297.891z"/>
</g>
<path style="fill:#DC691D;" d="M386.327,242.036H228.073c-5.139,0-9.309-4.17-9.309-9.309c0-5.139,4.17-9.309,9.309-9.309h158.255
	c5.139,0,9.309,4.17,9.309,9.309C395.636,237.866,391.466,242.036,386.327,242.036z"/>
<path style="fill:#FC3952;" d="M451.491,242.036h-27.927c-5.139,0-9.309-4.17-9.309-9.309c0-5.139,4.17-9.309,9.309-9.309h27.927
	c5.139,0,9.309,4.17,9.309,9.309C460.8,237.866,456.629,242.036,451.491,242.036z"/>
<path style="fill:#6B1E31;" d="M451.491,288.582H293.236c-5.139,0-9.309-4.17-9.309-9.309c0-5.139,4.17-9.309,9.309-9.309h158.255
	c5.139,0,9.309,4.17,9.309,9.309C460.8,284.411,456.629,288.582,451.491,288.582z"/>
<path style="fill:#1081E0;" d="M256,288.582h-27.927c-5.139,0-9.309-4.17-9.309-9.309c0-5.139,4.17-9.309,9.309-9.309H256
	c5.139,0,9.309,4.17,9.309,9.309C265.309,284.411,261.139,288.582,256,288.582z"/>
<rect x="172.218" y="372.364" style="fill:#E7ECED;" width="316.509" height="139.636"/>
<rect x="23.273" y="372.364" style="fill:#25AE88;" width="167.564" height="139.636"/>
<g>
	<path style="fill:#FFFFFF;" d="M88.436,484.073c-2.383,0-4.766-0.912-6.582-2.728l-27.927-27.927c-3.64-3.64-3.64-9.523,0-13.163
		c3.631-3.64,9.533-3.64,13.163,0l27.927,27.927c3.64,3.64,3.64,9.523,0,13.163C93.203,483.16,90.819,484.073,88.436,484.073z"/>
	<path style="fill:#FFFFFF;" d="M88.436,484.073c-2.383,0-4.766-0.912-6.582-2.728c-3.64-3.64-3.64-9.523,0-13.163l65.164-65.164
		c3.631-3.64,9.533-3.64,13.163,0c3.64,3.64,3.64,9.523,0,13.163l-65.164,65.164C93.203,483.16,90.819,484.073,88.436,484.073z"/>
</g>
<path style="fill:#6C342A;" d="M386.327,428.218H228.073c-5.139,0-9.309-4.171-9.309-9.309c0-5.139,4.17-9.309,9.309-9.309h158.255
	c5.139,0,9.309,4.171,9.309,9.309C395.636,424.048,391.466,428.218,386.327,428.218z"/>
<path style="fill:#3D6F44;" d="M451.491,428.218h-27.927c-5.139,0-9.309-4.171-9.309-9.309c0-5.139,4.17-9.309,9.309-9.309h27.927
	c5.139,0,9.309,4.171,9.309,9.309C460.8,424.048,456.629,428.218,451.491,428.218z"/>
<path style="fill:#EBBA16;" d="M451.491,474.764H293.236c-5.139,0-9.309-4.17-9.309-9.309s4.17-9.309,9.309-9.309h158.255
	c5.139,0,9.309,4.17,9.309,9.309S456.629,474.764,451.491,474.764z"/>
<path style="fill:#814494;" d="M256,474.764h-27.927c-5.139,0-9.309-4.17-9.309-9.309s4.17-9.309,9.309-9.309H256
	c5.139,0,9.309,4.17,9.309,9.309S261.139,474.764,256,474.764z"/>
<g>
</g>
<g>
</g>
<g>
</g>
<g>
</g>
<g>
</g>
<g>
</g>
<g>
</g>
<g>
</g>
<g>
</g>
<g>
</g>
<g>
</g>
<g>
</g>
<g>
</g>
<g>
</g>
<g>
</g>
</svg>
