<?xml version="1.0" encoding="UTF-8" standalone="no"?>
<!DOCTYPE svg PUBLIC "-//W3C//DTD SVG 1.1//EN" "http://www.w3.org/Graphics/SVG/1.1/DTD/svg11.dtd">
<svg width="100%" height="100%" viewBox="0 0 512 512" version="1.1" xmlns="http://www.w3.org/2000/svg" xmlns:xlink="http://www.w3.org/1999/xlink" xml:space="preserve" xmlns:serif="http://www.serif.com/" style="fill-rule:evenodd;clip-rule:evenodd;stroke-linejoin:round;stroke-miterlimit:2;">
    <rect id="Artboard1" x="0" y="0" width="512" height="512" style="fill:none;"/>
    <g id="Artboard11" serif:id="Artboard1">
        <g transform="matrix(680.894,0,0,680.894,115.366,512)">
            <path d="M0.391,-0.622C0.371,-0.63 0.352,-0.634 0.334,-0.634C0.285,-0.634 0.26,-0.607 0.26,-0.553L0.26,-0.5L0.374,-0.5L0.374,-0.386L0.26,-0.386L0.26,-0L0.106,-0L0.106,-0.386L0.022,-0.386L0.022,-0.5L0.106,-0.5L0.106,-0.562C0.106,-0.619 0.125,-0.665 0.162,-0.7C0.199,-0.735 0.249,-0.752 0.313,-0.752C0.344,-0.752 0.37,-0.749 0.391,-0.742L0.391,-0.622Z" style="fill:rgb(57,89,140);fill-rule:nonzero;"/>
        </g>
    </g>
</svg>
